exporting nft with seed zhjztqinmulisuhhzldqrtihumxser
Godot Engine v3.4.4.stable.arch_linux - https://godotengine.org
OpenGL ES 3.0 Renderer: NVIDIA GeForce RTX 2080 Ti/PCIe/SSE2
OpenGL ES Batching: ON
 
countLuke2
found seed: zhjztqinmulisuhhzldqrtihumxser
found a .png file in /backgrounds that is not named Bg*.png
found a .png file in /backgrounds that is not named Bg*.png
orig seed: zhjztqinmulisuhhzldqrtihumxser
seed processed: xzqhinshrzsmejtluurzidhlmiuqht
musician: drummer firs seed letters: x
musician: bassist firs seed letters: s
musician: harmonist firs seed letters: e
musician: melodist firs seed letters: r
slices100[2, 3, 9, 13, 16, 21, 23, 24, 26, 33, 39, 48, 57, 62, 65, 69, 77, 84]
invPitch100: 29
slice7
Rendering frame 0...
Rendering frame 1...
Rendering frame 2...
Rendering frame 3...
Rendering frame 4...
Rendering frame 5...
Rendering frame 6...
Rendering frame 7...
Rendering frame 8...
Rendering frame 9...
Rendering frame 10...
Rendering frame 11...
Rendering frame 12...
Rendering frame 13...
Rendering frame 14...
Rendering frame 15...
Rendering frame 16...
Rendering frame 17...
Rendering frame 18...
Rendering frame 19...
Rendering frame 20...
Rendering frame 21...
Rendering frame 22...
Rendering frame 23...
Rendering frame 24...
Rendering frame 25...
Rendering frame 26...
Rendering frame 27...
Rendering frame 28...
Rendering frame 29...
Rendering frame 30...
Rendering frame 31...
Rendering frame 32...
Rendering frame 33...
Rendering frame 34...
Rendering frame 35...
Rendering frame 36...
Rendering frame 37...
Rendering frame 38...
Rendering frame 39...
export finished

instrument loop: ../../../loops/DrumsKingOfTheHall.ogg
instrument loop: ../../../loops/BassBedrock.ogg
instrument loop: ../../../loops/MelodyNotMyCircus.ogg
number of loops to downmix: 3
downmixing audio...
making video file...
merging audio...
pitch scale: 1.041667
Changed tempo and pitch to 1.041667
Input #0, mov,mp4,m4a,3gp,3g2,mj2, from '../nft.mp4':
  Metadata:
    major_brand     : isom
    minor_version   : 512
    compatible_brands: isomiso2avc1mp41
    artist          : SolTunes
    album           : Season One
    date            : 2022
    encoder         : Lavf59.16.100
    comment         : soltunes.io
                    : seed=zhjztqinmulisuhhzldqrtihumxser
  Duration: 00:01:01.87, start: 0.000000, bitrate: 1072 kb/s
  Stream #0:0[0x1](und): Video: h264 (High) (avc1 / 0x31637661), yuv420p(progressive), 2048x2048 [SAR 1:1 DAR 1:1], 923 kb/s, 30 fps, 30 tbr, 15360 tbn (default)
    Metadata:
      handler_name    : VideoHandler
      vendor_id       : [0][0][0][0]
  Stream #0:1[0x2](und): Audio: aac (LC) (mp4a / 0x6134706D), 44100 Hz, stereo, fltp, 139 kb/s (default)
    Metadata:
      handler_name    : SoundHandler
      vendor_id       : [0][0][0][0]
